# xmcd
#
# Track frame offsets: 
#        150
#        16014
#        30987
#        44502
#        55979
#        69516
#        86236
#        100085
#        114881
#        128589
#        141330
#        156683
#        175597
#        188389
#        202851
#        218900
#        232538
#        249051
#        264750
#        286259
#        300088
#        312165
#        335050
#
# Disc length: 4706 seconds
#
# Revision: 2
# Processed by: cddbd v1.5.2PL0 Copyright (c) Steve Scherf et al.
# Submitted via: ExactAudioCopyFreeDBPlugin 1.0
#
DISCID=21126017
DTITLE=Various Artist - Bravo Hits 103 [CD1]
DYEAR=2018
DGENRE=Pop
TTITLE0=Josh. - Cordula Grün
TTITLE1=The BossHoss - Ayo
TTITLE2=Bosse - Augen zu Musik an
TTITLE3=BAUSA - Vagabund
TTITLE4=The Faim - Summer Is a Curse
TTITLE5=Rea Garvey - Kiss Me
TTITLE6=Armin van Buuren - Blah Blah Blah
TTITLE7=Nick Jonas and Robin Schulz - Right Now
TTITLE8=Felix Jaehn - Jennie (feat. R. City and Bori)
TTITLE9=Loud Luxury and Anders - Love No More
TTITLE10=Rudimental X Major Lazer feat. Anne-Marie and Mr. Eazi - Let Me
TTITLE10=Live
TTITLE11=Axwell Λ Ingrosso and Romans - Dancing Alone
TTITLE12=Aya Nakamura - Djadja
TTITLE13=Die Lochis - Alpha Queen
TTITLE14=Joris - Glück auf
TTITLE15=Lea and Cyril - Immer wenn wir uns sehen
TTITLE16=Rita Ora  - Girls (feat. Cardi B, Bebe Rexha and Charli XCX)
TTITLE17=Leon Machère - Copacabana
TTITLE18=Kay One - Es tut mir leid
TTITLE19=Bonez MC - 500 PS (feat. RAF Camora)
TTITLE20=Capital Bra - Melodien (feat. Juju)
TTITLE21=Samy Deluxe - Adriano (SaMTV Unplugged) (feat. Torch, Xavier 
TTITLE21=Naidoo, Afrob, Megaloh and Denyo)
TTITLE22=The Night Game - The Outfield
EXTD=
EXTT0=
EXTT1=
EXTT2=
EXTT3=
EXTT4=
EXTT5=
EXTT6=
EXTT7=
EXTT8=
EXTT9=
EXTT10=
EXTT11=
EXTT12=
EXTT13=
EXTT14=
EXTT15=
EXTT16=
EXTT17=
EXTT18=
EXTT19=
EXTT20=
EXTT21=
EXTT22=
PLAYORDER=
